<svg width="93" height="83" viewBox="0 0 93 83" fill="none" xmlns="http://www.w3.org/2000/svg">
<path d="M62.7521 31.2743H1.06079V20.5389H62.7521C65.4556 20.5389 67.6539 18.3406 67.6539 15.6372C67.6539 12.9337 65.4556 10.7354 62.7521 10.7354C61.8735 10.7354 61.0483 10.956 60.2977 11.3935L54.9016 2.11294C57.2777 0.732769 59.9918 0 62.7521 0C71.3746 0 78.3857 7.01467 78.3857 15.6336C78.3893 24.2596 71.3746 31.2743 62.7521 31.2743Z" fill="white"/>
<path d="M92.8099 37.6309H0.964722V48.3664H92.8099V37.6309Z" fill="white"/>
<path d="M92.8099 54.7265H0.964722V65.4619H92.8099V54.7265Z" fill="white"/>
<path d="M92.8099 71.8185H0.964722V82.554H92.8099V71.8185Z" fill="white"/>
</svg>
