<svg width="92" height="83" viewBox="0 0 92 83" fill="none" xmlns="http://www.w3.org/2000/svg">
<path d="M61.7874 31.2743H0.0960693V20.5389H61.7874C64.4909 20.5389 66.6892 18.3406 66.6892 15.6372C66.6892 12.9337 64.4909 10.7354 61.7874 10.7354C60.9088 10.7354 60.0836 10.956 59.333 11.3935L53.9368 2.11294C56.313 0.732769 59.0271 0 61.7874 0C70.4099 0 77.421 7.01467 77.421 15.6336C77.4246 24.2596 70.4099 31.2743 61.7874 31.2743Z" fill="#0066FF"/>
<path d="M91.8452 37.6309H0V48.3664H91.8452V37.6309Z" fill="#0066FF"/>
<path d="M91.8452 54.7265H0V65.4619H91.8452V54.7265Z" fill="#0066FF"/>
<path d="M91.8452 71.8185H0V82.554H91.8452V71.8185Z" fill="#0066FF"/>
</svg>
